<?xml version="1.0" encoding="iso-8859-1"?>
<!-- Uploaded to: SVG Repo, www.svgrepo.com, Generator: SVG Repo Mixer Tools -->
<!DOCTYPE svg PUBLIC "-//W3C//DTD SVG 1.1//EN" "http://www.w3.org/Graphics/SVG/1.1/DTD/svg11.dtd">
<svg fill="#000000" version="1.1" id="Capa_1" xmlns="http://www.w3.org/2000/svg" xmlns:xlink="http://www.w3.org/1999/xlink" 
	 width="800px" height="800px" viewBox="0 0 32.153 32.153"
	 xml:space="preserve">
<g>
	<g>
		<path d="M9.984,16.25h-4.63c-0.455,0-0.887,0.199-1.182,0.545c-0.295,0.348-0.423,0.805-0.351,1.254
			c0.515,3.219,2.266,6.024,4.75,7.913c0.357,0.271,0.814,0.375,1.254,0.285c0.439-0.091,0.82-0.366,1.04-0.758
			c0.893-1.583,1.737-3.071,2.298-4.056C11.313,20.427,10.046,18.49,9.984,16.25z"/>
		<path d="M16.077,9.978c1.04,0,2.017,0.262,2.873,0.72l2.528-3.816c0.258-0.388,0.326-0.87,0.189-1.314
			c-0.136-0.444-0.464-0.806-0.895-0.981c-1.448-0.595-3.034-0.921-4.696-0.921c-1.556,0-3.042,0.285-4.413,0.806
			c-0.431,0.164-0.767,0.511-0.916,0.946c-0.15,0.436-0.099,0.915,0.14,1.31c0.986,1.634,1.855,3.078,2.375,3.942
			C14.104,10.229,15.062,9.978,16.077,9.978z"/>
		<path d="M22.133,15.377c0.026,0.229,0.042,0.462,0.042,0.699c0,2.176-1.143,4.087-2.858,5.164l2.181,3.835
			c0.251,0.442,0.704,0.733,1.212,0.778c0.506,0.047,0.954-0.205,1.329-0.552c2.675-2.464,3.96-5.614,4.185-7.981
			c0.039-0.417-0.014-0.836-0.269-1.168c-0.259-0.33-0.646-0.533-1.063-0.551C24.992,15.518,23.225,15.432,22.133,15.377z"/>
		<path d="M16.077,11.79c-1.022,0-1.957,0.358-2.693,0.951c-0.972,0.787-1.596,1.989-1.596,3.336c0,0.059,0.004,0.116,0.006,0.174
			c0.077,1.925,1.423,3.521,3.226,3.98c0.337,0.088,0.69,0.134,1.058,0.134c0.391,0,0.77-0.054,1.128-0.15
			c1.819-0.496,3.159-2.159,3.159-4.138C20.364,13.709,18.443,11.79,16.077,11.79z"/>
		<path d="M32.15,15.814c-0.094-5.684-3.146-10.656-7.682-13.443C22.025,0.869,19.15,0,16.077,0c-2.902,0-5.627,0.773-7.98,2.125
			C3.263,4.9,0,10.115,0,16.077c0,0.059,0.004,0.116,0.004,0.174c0.062,5.964,3.39,11.156,8.275,13.88
			c2.31,1.287,4.97,2.022,7.797,2.022c2.98,0,5.775-0.816,8.171-2.237c4.728-2.802,7.905-7.955,7.905-13.838
			C32.154,15.988,32.15,15.9,32.15,15.814z M23.051,27.811c-2.043,1.22-4.427,1.92-6.975,1.92c-2.401,0-4.663-0.625-6.625-1.72
			c-4.143-2.307-6.964-6.706-7.026-11.761c-0.001-0.058-0.001-0.115-0.001-0.174c0-5.087,2.794-9.533,6.931-11.882
			c1.986-1.127,4.278-1.771,6.722-1.771c2.581,0,4.993,0.72,7.054,1.966c3.86,2.338,6.475,6.532,6.596,11.334
			c0.004,0.116,0.004,0.235,0.004,0.354C29.73,21.059,27.049,25.425,23.051,27.811z"/>
	</g>
</g>
</svg>